<?xml version="1.0" encoding="utf-8"?>
<!-- Generator: Adobe Illustrator 25.0.0, SVG Export Plug-In . SVG Version: 6.00 Build 0)  -->
<svg version="1.1" id="Layer_1" xmlns="http://www.w3.org/2000/svg" xmlns:xlink="http://www.w3.org/1999/xlink" x="0px" y="0px"
	 viewBox="0 0 1080 528" style="enable-background:new 0 0 1080 528;" xml:space="preserve">
<style type="text/css">
	.st0{fill:#FFFFFF;}
	.st1{fill:#B8BBBE;}
	.st2{fill:#FBCF17;}
	.st3{fill:#F1F0F0;}
	.st4{fill:#020202;}
</style>
<g>
	<path id="XMLID_71_" class="st0" d="M162.3,187.9c0-1.7,29.9-3.5,49.2-3.5s50.6,1.3,50.6,3.5s-31.6,4.3-49.9,3.8
		C194,191.4,162.3,189.7,162.3,187.9z"/>
	<path id="XMLID_70_" class="st0" d="M113.9,293.2c-0.3-2.2,22.9-3.2,28.4-2.9c5.4,0.3,77.5,0.3,77.5,0.3s27.3,0.7,27.3,2.7
		c0,2-10.5,3.8-27.9,3.9s-77.3,0-77.3,0S114.2,295.4,113.9,293.2z"/>
	<path id="XMLID_69_" class="st0" d="M167,309.1c-0.6-1.3,7.4-2.4,11.1-2.7c5.7-0.3,11.5-0.1,17.1-0.1c5.2,0,10.5,0,15.7,0
		c4.5,0,8.9,0,13.4,0c1.9,0,3.7-0.1,5.6,0c0,0,11.7,0.6,14.9,2.1c3.2,1.5-9.8,4.5-15.5,4.3c-4.4,0.3-8.9,0.1-13.4,0.1
		c-7.1,0-14.2,0-21.3,0c-2.5,0-5,0-7.5,0c-4.5,0-8.8-0.2-13.2-1c-1.6-0.3-3.4-0.7-5-1.2C169,310.5,168,310.2,167,309.1z"/>
	<path id="XMLID_68_" class="st0" d="M598.1,308.9c0.5-0.3,9.5-2.5,15.1-2.5c5.6,0,48,0,48,0s9.8,0.2,15.3,2.5
		c0.7,0.7,1.6,3.8-15.9,3.9c-17.5,0.2-47.8,0-47.8,0s-12.2-1.2-14.8-2.7C597.2,309.7,597.6,309.2,598.1,308.9z"/>
	<path id="XMLID_67_" class="st0" d="M546.7,292.6c0,0,21.1-2.1,31.3-2.1c10.2,0,77.3,0,77.3,0s22.9,1.4,22.9,3.1
		c0,1.7-14.8,3.1-22.7,3.1s-77.9,0-77.9,0S536.2,295.2,546.7,292.6z"/>
	<path id="XMLID_60_" class="st0" d="M1036.8,344.2c-20.6-7.9-199.1-11.2-214.5-11.5c0.9-0.9,24.3-15.6,26-57.9
		c0-9.6-1.2-19.2-4.2-28.4c-2.7-8-6.7-15.5-12.3-21.9c-4.9-5.6-10.7-10.1-17-13.7c-5.8-3.2-12-5.7-18.4-7.4
		c-5.3-1.5-10.8-2.4-16.3-3c-7.4-0.8-14.8-0.5-22,1.6c-6.7,2-13.2,4.6-19.5,7.8c-8.3,4.3-16.1,9.6-22.9,16
		c-8.1,7.6-14.7,16.8-19.2,26.9c-20.3,44.9,8.5,78.1,8.5,78.1s-244.9-0.6-296.4,0c2.1-2.1,3.9-4.3,5.8-6.6
		c17.3-21.2,25.2-49,15.7-75.4c-4.5-12.6-11.7-24.4-21.9-33.3c-14.9-13.1-34.6-17.3-54.1-15.3c-61.4,6.1-82.2,61-81.4,87.4
		c0.8,26.4,12.3,38.8,17.1,44.6c-201.7,0-249.5,11.8-249.5,11.8c-8.6,19.6,651,16,668.8,15.6c169.8,0,319.5-11.3,325.3-12.2
		C1040.4,346.8,1041.1,346.1,1036.8,344.2z M397.4,282.2c-3.6,21.5-20.1,38-41.7,40.6c-0.9,0.1-1.9,0.2-2.8,0.2
		c-1.7,0.1-3.5,0.1-5.2,0c-13-0.8-24.4-7.5-31-18.3l0,0c-2.7-4.4-4.6-9.5-5.4-15.1c-0.3-2-0.5-3.8-0.5-5.7c0-1.5,0.1-3,0.3-4.6
		c0.2-2.3,0.6-4.6,1.2-6.9c5.1-19.5,23.4-34.6,41.6-35.4c1.4-0.1,2.8,0,4.2,0c1.4-0.1,2.8-0.1,4.2,0c4.2,0.2,8.2,1.2,11.9,2.8
		c0.3,0.1,0.6,0.2,0.8,0.3C390.4,246.8,400.4,264,397.4,282.2z M813.4,278.2c-1.2,21.9-17.7,40.1-39.4,44.1
		c-1.6,0.3-3.2,0.6-4.7,0.7c-0.7,0-1.3,0-1.9,0c-0.2,0-0.5,0-0.6,0c-0.8,0-1.7,0-2.5-0.1c-13.2-0.7-24-7.1-30.6-16.3
		c-0.1-0.1-0.2-0.3-0.3-0.5c-3.2-4.4-5.6-9.7-6.5-15.6v-0.1c0-0.1,0-0.2,0-0.2V290c0-0.5-0.1-0.8-0.2-1.3
		c-0.7-5.7-0.2-11.7,1.6-17.7l0,0c0.6-1.7,1.2-3.5,2-5.3c6.7-15.1,18.3-25.1,34.6-28.1c2.4-0.5,4.9-0.7,7.1-0.8
		c1.4-0.1,2.8-0.1,4.1,0c4.5,0.1,8.7,1,12.5,2.4c0.1,0,0.3,0.1,0.5,0.2C805.2,245.5,814.3,261.3,813.4,278.2z"/>
	<path id="XMLID_59_" class="st1" d="M801,518.2c-3.2-1-6.7-0.9-10.1-1.2c-4.9-0.5-6.1-2-4.9-6.6c1.4-5,2.8-9.8,4.3-14.7
		c1-3.5,2.2-4.1,5.8-3.2c6.4,1.4,12.7,2.4,19.1,0.3c3.8-1.3,6.4-3.9,8.9-6.6c0.7-0.7,0.7-1.5,0.7-2.3c-0.7-7.5-1.3-15.2-2-22.7
		c-0.7-8-1.5-16-2.3-24c-0.5-4.5-0.8-9.1-1.3-13.7c0-0.6,0.1-1.4-0.7-1.6c-0.7-0.1-1,0.6-1.5,0.9c-5,5.3-10,10.7-14.8,16.1
		c-2.4,2.8-4.7,3.8-8.7,2.4c-7.2-2.5-13.5,0.6-19,8c-5.2,7.2-8.5,15.4-11.8,23.4c-2,4.5-3.8,9-5.7,13.5c-1,2.7-2.8,3.8-5.8,3.7
		c-9.6-0.1-19.2,0-28.8-0.1c-4.2,0-5.7-2.2-4.1-6c9.1-21.5,18.3-43.1,27.3-64.6c1.6-3.9,3.8-5.6,8.2-5.4c8,0.3,16.1,0.1,24.2,0.1
		c2,0,3.9,0.1,5,2c0.9,1.6,1.9,1.2,3.1,0.5c9.1-4.7,18.6-4.9,28.1-1.3c0.8,0.3,1.6,0.5,2.3,1c1.4,1.2,2.2,2.1,3.2-0.5
		c0.6-1.5,2.4-1.7,4.1-1.7c10.4,0,21,0,31.4,0c3.1,0,4.2,1.2,4.2,4.5c0,10.3-0.8,20.6-1.3,30.9c0,0.7,0,1.5,0,2.7
		c2.7-2.1,4.2-4.6,5.9-6.9c7.5-9.6,14.9-19.2,22.5-28.9c1-1.4,2.4-2.3,4.3-2.3c9.8,0,19.7,0,29.5,0c1.9,0,3.6,0.6,4.3,2.5
		c0.7,1.7-0.2,3.1-1.5,4.5c-11.1,12.7-22.2,25.5-33.3,38.2c-8.2,9.4-16.4,18.6-24.7,27.9c-4.7,5.4-9.5,10.8-14.6,15.9
		c-8.7,8.7-19.2,13.5-31.4,14.6c-0.6,0-1.3,0-1.7,0.6C811.9,518.2,806.5,518.2,801,518.2z"/>
	<path id="XMLID_56_" class="st2" d="M536.9,279.5c-11-0.3-24.2,0.8-37.2-1c-19.9-2.8-37-10.8-49.6-27.1
		c-10.9-14.2-14.6-30.6-14.1-48c0.3-12.6,3.2-24.7,7.6-36.4c6.6-17.4,12.5-35.1,19.7-52.2C476.1,84.6,497.1,61,523.3,42
		c21.2-15.4,44.5-26.2,70.4-30.6c5.7-0.9,11.3-1.6,17.1-1.6c18.6,0,37.3-0.2,55.9,0.1c16.9,0.2,32.6,4.7,46.4,14.8
		c16.4,12.2,24.9,28.9,27,49.1c1.5,14-0.2,27.8-4.9,41.1c-7.1,20.6-14.2,41.3-22.9,61.4c-11.8,27.1-30.4,48.9-53.7,66.8
		c-22,17.1-46.4,29.3-74.1,34.4c-7.4,1.4-14.9,2-22.5,2.1C554.4,279.5,546.8,279.5,536.9,279.5z M575.1,183.1
		c16.7,1.5,30.7-5.4,41.8-18.5c8.2-9.7,12.2-21.6,14.5-33.9c2.7-13.9-6.5-24.2-20.6-24.7c-4.1-0.1-8.1,0.1-12.3-0.1
		c-13.9-0.5-25.4,5.1-35.2,14.5c-11.1,10.7-15.7,24.5-18.4,39c-2.4,12.9,6.7,22.9,19.8,23.6C568,183.2,571.1,183.1,575.1,183.1z"/>
	<path id="XMLID_55_" class="st2" d="M750.9,122.6c7.1-18.9,13.9-37.3,20.7-55.7c0.5-1.3,1.3-2.1,2.3-2.9
		c22.3-17,44.6-33.9,66.9-50.9c2-1.5,3.8-2.1,6.3-2.1c36.5,0.1,73.1,0,109.5,0c3.8,0,3.9,0,2.5,3.7C941,63.9,922.7,113,904.4,162.2
		c-14.4,38.6-28.6,77.2-43,115.8c-0.7,2-4.5,3.2-6.3,2.2c-1-0.6-0.3-1.5-0.2-2.3c0.8-12,0.2-24-4.6-35.1
		c-11.9-27.1-31.8-44-61.8-47.9c-3.2-0.5-6.5-0.7-9.7-0.5c-2.4,0.1-3.4-0.2-2.3-3c6.6-17.4,13-34.8,19.5-52.3
		c3.1-8.3,6.1-16.7,9.3-25c0.3-0.8,1.2-1.7,0.5-2.5c-0.6-0.7-1.6-0.1-2.3,0.1c-16,3.2-32,6.5-47.9,9.7
		C754.1,121.6,752.7,122,750.9,122.6z"/>
	<path id="XMLID_54_" class="st2" d="M268.7,122.6c2.8-7.6,5.4-14.8,8.1-22c4.1-11,8.1-21.9,12.2-32.9c0.6-1.5,1.4-2.7,2.7-3.7
		c22.5-17,44.8-34,67.1-51.2c1.7-1.4,3.5-2,5.7-2c36.5,0.1,73.1,0,109.5,0c4.2,0,4.2,0,2.7,4.1c-11.5,30.8-22.9,61.7-34.4,92.5
		c-11.7,31.6-23.5,63.3-35.2,94.9c-1.4,3.7-1.4,3.7-4.5,1.7c-11.3-6.6-23.7-9.6-36.8-10c-17-0.6-33.2,2.2-47.9,10.9
		c-21.8,12.9-38.1,30.6-45.5,55.3c-1.6,5.3-2.9,10.8-3,16.3c0,2.9-1,3.7-3.8,3.6c-3.9-0.2-3.9,0-2.5-3.8
		c19.9-53.8,39.9-107.7,59.9-161.5c0.5-1.2,1.6-2.5,0.9-3.5c-0.9-1.2-2.5,0-3.8,0.2c-15.7,3.1-31.5,6.4-47.4,9.6
		C271.5,121.7,270.3,122.2,268.7,122.6z"/>
	<path id="XMLID_51_" class="st1" d="M246.4,387.7c9.7,0,19.5-0.3,29.2,0.1c9.3,0.5,18.3,2,25.8,8.2c5.3,4.4,8,10,8.8,16.7
		c1,9.6-1.6,18.6-5.2,27.3c-4.5,10.8-10.3,20.8-19.1,28.7c-11.3,10.2-24.4,16.9-39.6,19.5c-9.6,1.5-19.3,1.9-29.1,1.9
		c-13.9-0.1-27.8,0-41.8,0c-3.9,0-5.3-2-3.8-5.6c9.3-21.9,18.6-43.9,27.9-65.8c3.8-9,7.6-18.1,11.5-27.1c1-2.7,2.5-3.9,5.7-3.9
		C226.5,387.7,236.5,387.7,246.4,387.7L246.4,387.7z M249.8,416.6c-0.8,0-1.7,0.1-2.5,0c-2.7-0.3-4.2,0.3-5.1,3.1
		c-1,3.2-2.7,6.4-4.1,9.5c-4.2,9.7-8.2,19.3-12.4,29.1c-0.9,2.2-0.2,2.9,2,2.8c3.1-0.2,6.3-0.5,9.4-0.6c4.3-0.1,8.3-1.3,11.7-3.8
		c10.4-7.8,14.8-19.1,17.1-31.3c0.9-4.6-0.7-6.3-5.4-7.6C257.1,416.8,253.5,416.5,249.8,416.6z"/>
	<path id="XMLID_48_" class="st1" d="M373.9,461.7c-9.6,0-19.2,0-28.8,0c-0.9,0-2.2-0.5-2.8,0.8c-0.5,1.2-0.1,2.3,0.6,3.2
		c1.4,1.9,3.4,2.7,5.7,2.9c5.1,0.3,10-0.6,14-3.5c3.7-2.7,7.6-2.3,11.7-2.1c5.2,0.3,10.4,0.7,15.6,1.2c2.8,0.2,5.6,0.5,8.5,0.6
		c1.5,0.1,2.8,0.5,3.2,2c0.5,1.4,0.2,2.8-0.9,4.1c-4.4,4.1-9.1,7.5-14.4,10.5c-10,5.8-20.7,8.6-32.2,9.4
		c-10.5,0.8-21.1,0.9-31.4-1.6c-14.9-3.8-22.3-16-18.6-30.9c3.7-14.7,12.6-25.6,25.2-33.7c15.7-10.1,33.2-12.6,51.3-11.5
		c6.9,0.5,14,1.3,20.3,4.7c10.7,5.9,14.4,14.9,11.8,27c-1,4.6-2.7,9-4.3,13.4c-0.9,2.5-2.7,3.8-5.4,3.7c-4.9-0.1-9.8,0-14.7,0
		C383.5,461.7,378.8,461.7,373.9,461.7z M351.9,441.7c7.6,0,14.4,0,21.2,0c0.7,0,1.6,0,1.6-1c0.1-1.3,0.5-2.7-0.6-3.6
		c-0.9-0.7-2-1.4-3-1.5C364.2,434.6,357.8,435.9,351.9,441.7z"/>
	<path id="XMLID_45_" class="st1" d="M686.7,461.7c-9.4,0-18.9,0-28.2,0c-1.2,0-3-0.8-3.5,1c-0.5,1.9,0.5,3.5,2.1,4.5
		c3.1,2.1,6.6,1.6,10.1,1.2c2.9-0.3,5.8-1.3,8.1-3.1c3.6-2.8,7.6-2.4,11.7-2.2c5.7,0.3,11.2,0.8,16.8,1.2c2.4,0.1,4.7,0.5,7.2,0.6
		c1.5,0.1,2.8,0.3,3.4,1.9c0.6,1.6,0.3,3-1,4.3c-4.5,4.2-9.6,7.8-14.9,10.9c-9.7,5.6-20.3,8.1-31.3,9c-10.7,0.8-21.3,0.9-31.7-1.7
		c-14.8-3.8-22.2-16-18.5-30.8s12.6-25.8,25.5-33.9c15.9-10,33.5-12.6,51.8-11.5c6.9,0.5,14,1.5,20.3,4.9
		c9.8,5.3,13.8,14.7,11.5,26.3c-1,5-2.8,9.6-4.6,14.2c-0.9,2.5-2.9,3.4-5.4,3.4C706,461.7,696.3,461.7,686.7,461.7z M676.3,441.7
		c2.8,0,5.7,0,8.5,0c1,0,2.5,0.6,2.7-1.3c0.2-1.5,0.2-3-1.2-3.9c-0.5-0.3-1.2-0.6-1.7-0.7c-6.6-1.4-12.6-0.2-17.9,3.9
		c-0.5,0.3-1.2,0.8-0.7,1.5c0.2,0.6,0.9,0.3,1.4,0.3C670.2,441.7,673.3,441.7,676.3,441.7z"/>
	<path id="XMLID_72_" d="M789.1,239.3c-0.1-0.1-0.3-0.1-0.5-0.2c-2.9-1-5.9-1.7-9.1-2.1l0,0c-1-0.1-2.2-0.2-3.2-0.2
		c-1.3,0-2.7,0-4.1,0c-2.3,0.1-4.6,0.3-7.1,0.8c-16.3,2.9-27.9,13.1-34.6,28.1c-0.8,1.7-1.5,3.5-2,5.3l0,0c-1.9,6-2.3,12-1.6,17.7
		c0,0.5,0.1,0.9,0.1,1.3v0.1c0,0.1,0,0.2,0,0.2v0.1c1,5.7,3.2,11,6.5,15.6c0.1,0.1,0.2,0.3,0.3,0.5c6.6,9.3,17.4,15.5,30.4,16.3
		c0.8,0,1.7,0.1,2.5,0.1h0.1c0.2,0,0.3,0,0.6,0c0.6,0,1.2,0,1.9,0c1.5-0.1,3-0.3,4.7-0.7c21.5-4.2,38.2-22.3,39.4-44.1
		C814.3,261.3,805.2,245.5,789.1,239.3z M753.2,255.8c5.7-4.2,11.3-6.5,17.5-6.7c12-0.5,21.5,4.3,27,15.2
		c5.7,11.2,3.5,22.1-3.5,32.2c-0.3,0.5-0.7,1.2-1.3,1v0.1c0,0.1-0.1,0.1-0.1,0.2c-0.1-0.2-0.3-0.5-0.5-0.7l0,0l0,0l0,0
		c3.4-6.9,3.1-14.1,0.8-21.3C788,259.6,772,251.4,753.2,255.8z"/>
	<path id="XMLID_35_" class="st1" d="M571.9,450.1c3.9-4.9,8-9.8,11.9-14.7c5.1-6.3,10.2-12.5,15.2-18.8c1.5-2,3.4-2.8,5.9-2.8
		c9.1,0.1,18.4,0,27.7,0.1c0.8,0,1.7-0.1,2.5,0.1c1.5,0.3,2.9,0.9,3.4,2.5c0.5,1.5-0.1,2.8-1.2,3.9c-3.6,3.7-7.1,7.4-10.5,11.1
		c-9.8,10.3-19.8,20.6-29.6,31c-7.9,8.3-15.6,16.8-23.5,25.2c-1.2,1.3-2.7,2-4.4,2c-8.8,0-17.6-0.1-26.4,0c-3.1,0-4.4-1.6-4.6-4.3
		c-0.7-8.2-1.3-16.4-2-24.7c-0.9-11.1-2-22.2-3-33.3c-0.2-2.9-0.6-5.8-0.7-8.7c-0.2-3.4,1.3-5,4.5-5c10.4-0.1,21,0,31.4,0
		c3.1,0,4.4,1.3,4.2,4.5c-0.3,9.4-0.8,18.8-1.3,28.1c0,1,0,2.1,0,3.1C571.5,449.9,571.7,450,571.9,450.1z"/>
	<path id="XMLID_34_" class="st1" d="M425.1,490c-4.9,0-9.8,0-14.7,0c-3.9,0-5.6-2.2-4.1-5.9c3.9-9.5,7.9-18.9,11.9-28.2
		c8.1-19,16.2-38.1,24.3-57.1c1.2-2.8,2.4-5.6,3.6-8.3c0.8-2,2.2-2.8,4.4-2.8c10,0.1,19.9,0,29.9,0c4.2,0,5.7,2.2,3.9,6.1
		c-9.1,21.4-18.3,42.8-27.3,64.3c-3.9,9.1-7.8,18.3-11.6,27.4c-1.3,3.2-3.1,4.9-6.8,4.5C434.1,489.7,429.6,490,425.1,490z"/>
	<path id="XMLID_25_" class="st1" d="M479,490c-4.7,0-9.4,0-14.1,0c-4.6,0-5.9-1.7-4.2-6.1c2.3-6,5-11.9,7.4-17.9
		c6.8-16.1,13.8-32.3,20.6-48.4c1-2.5,2.7-3.5,5.3-3.5c9.6,0,19.2,0,28.8,0c4.6,0,6,2.2,4.2,6.5c-5.6,13.3-11.3,26.5-16.9,39.7
		c-3.6,8.6-7.4,17-10.9,25.7c-1.2,2.9-3,4.2-6.1,4.1C488.4,489.9,483.7,490,479,490z"/>
	<path id="XMLID_24_" class="st1" d="M520.1,387.7c4.9,0,9.8,0,14.7,0c3.6,0,5.1,2.3,3.7,5.6c-2.2,5.2-4.4,10.4-6.6,15.6
		c-0.9,2.2-2.4,3.2-4.9,3.2c-10.2,0-20.3,0-30.4,0c-3.4,0-4.7-2.2-3.5-5.3c2.2-5.4,4.5-10.8,6.8-16.2c0.9-2.2,2.4-3.1,4.9-3
		C510.1,387.7,515.2,387.7,520.1,387.7z"/>
	<path id="XMLID_23_" class="st3" d="M377.6,298.2c-0.8-0.9-0.1-1.7,0.1-2.7c6.9-25.6-13.4-46.4-39.2-39.9c0-0.1,0-0.3,0.1-0.5
		c18.8-13.4,41.4-3.7,45.8,15.2c2,8.6,0.3,16.6-4.3,24C379.4,295.7,378.4,297,377.6,298.2L377.6,298.2z"/>
	<path id="XMLID_62_" class="st3" d="M794.3,296.5c-0.3,0.5-0.7,1.2-1.2,1v0.1c0,0.1-0.1,0.1-0.2,0.2c-0.1-0.2-0.3-0.5-0.5-0.7l0,0
		l0,0c3.4-6.9,3.1-14.1,0.8-21.3c-5.1-16.2-21.3-24.5-39.9-20c5.7-4.2,11.3-6.5,17.5-6.7c12-0.5,21.5,4.3,27,15.2
		C803.3,275.6,801.2,286.4,794.3,296.5z"/>
	<path id="XMLID_40_" class="st3" d="M792.3,297.2C792.3,297.2,792.3,297.1,792.3,297.2L792.3,297.2
		C792.3,297.1,792.3,297.1,792.3,297.2C792.3,297.1,792.3,297.2,792.3,297.2z"/>
	<path id="XMLID_37_" class="st3" d="M792.3,297.1L792.3,297.1L792.3,297.1L792.3,297.1z"/>
	<path id="XMLID_77_" class="st4" d="M375.1,240c0.3,0.2,0.8,0.3,1.2,0.6C375.9,240.5,375.4,240.2,375.1,240
		c-0.3-0.1-0.7-0.2-0.9-0.3c-3.7-1.6-7.8-2.5-11.9-2.8c-1.4-0.1-2.8,0-4.2,0c-1.4-0.1-2.8-0.1-4.2,0c-18.2,0.9-36.4,16-41.4,35.4
		c-0.6,2.2-0.9,4.5-1.2,6.9c-0.2,1.6-0.2,3.1-0.3,4.6c0,1.9,0.2,3.8,0.5,5.7c0.8,5.6,2.8,10.7,5.4,15.1l0,0c0.8,1.4,1.7,2.7,2.7,3.8
		c0.1,0.2,0.3,0.3,0.5,0.6s0.3,0.5,0.5,0.6c0.8,0.9,1.6,1.9,2.5,2.7c0.3,0.3,0.6,0.6,0.9,0.8c0.3,0.2,0.6,0.6,0.9,0.8
		c1.9,1.5,3.9,2.9,6,4.2c0.2,0.1,0.6,0.3,0.8,0.5c1.5,0.8,3,1.5,4.6,2.1c0.3,0.1,0.6,0.2,0.9,0.3c0.3,0.1,0.8,0.2,1.2,0.3
		c0.3,0.1,0.7,0.2,1,0.3c0.2,0.1,0.6,0.1,0.8,0.2c0.3,0.1,0.6,0.1,0.9,0.2c1.3,0.3,2.7,0.6,3.9,0.7c0.5,0,0.8,0.1,1.3,0.1
		c0.5,0,0.8,0.1,1.3,0.1c1.7,0.1,3.5,0.1,5.2,0c0.9,0,1.9-0.1,2.8-0.2c21.5-2.7,38.1-19,41.7-40.6C400.4,264,390.4,246.8,375.1,240z
		 M338.5,255.4v-0.1l0,0l0,0c13.5-9.7,29.3-7.3,38.6,2c0.6,0.6,1,1.2,1.6,1.7l0,0c0.5,0.6,0.9,1.2,1.4,1.9c0.3,0.5,0.7,1,1,1.6
		c0.1,0.2,0.3,0.5,0.5,0.7c0.2,0.5,0.5,0.9,0.7,1.4c0.9,1.9,1.7,3.9,2.2,6c0.1,0.3,0.1,0.7,0.2,1c0.1,0.5,0.2,0.9,0.2,1.5
		c0,0.1,0,0.2,0,0.2c0.6,3.7,0.3,7.3-0.5,10.8c-0.1,0.3-0.2,0.7-0.2,1c-0.2,0.7-0.3,1.4-0.7,2.1c-0.8,2.4-2,4.9-3.5,7.2
		c-0.8,1.3-1.6,2.5-2.5,3.8l0,0c-0.1-0.1-0.1-0.1-0.1-0.2c-0.1-0.1-0.1-0.1-0.1-0.2c-0.2-0.5-0.1-0.9,0.1-1.3c0-0.1,0.1-0.3,0.2-0.5
		c0-0.1,0.1-0.2,0.1-0.5c2.1-7.5,1.7-14.8-0.5-21c-0.2-0.6-0.5-1.3-0.7-1.9c-0.3-0.8-0.7-1.5-1-2.3l0,0c-0.5-0.9-1-1.7-1.5-2.5
		c-0.7-1-1.4-2-2.2-2.9c-0.5-0.6-1-1.2-1.5-1.7c-7.4-7.4-18.9-11-31.6-7.8l0,0C338.5,255.5,338.5,255.5,338.5,255.4z"/>
</g>
</svg>
